<mxfile host="app.diagrams.net" agent="Mozilla/5.0 (Macintosh; Intel Mac OS X 10_15_7) AppleWebKit/537.36 (KHTML, like Gecko) Chrome/134.0.0.0 Safari/537.36" version="26.1.3">
  <diagram name="Page-1" id="Z2auox1vzOWOUR0_qaX3">
    <mxGraphModel dx="862" dy="968" grid="1" gridSize="10" guides="1" tooltips="1" connect="1" arrows="1" fold="1" page="1" pageScale="1" pageWidth="1100" pageHeight="1700" math="0" shadow="0">
      <root>
        <mxCell id="0" />
        <mxCell id="1" parent="0" />
        <mxCell id="lTHf9we9AW2yssygMWxT-14" value="" style="rounded=0;whiteSpace=wrap;html=1;dashed=1;fillColor=none;" parent="1" vertex="1">
          <mxGeometry x="31.990000000000002" y="186" width="154" height="374" as="geometry" />
        </mxCell>
        <mxCell id="lTHf9we9AW2yssygMWxT-15" value="Sources" style="rounded=0;whiteSpace=wrap;html=1;strokeColor=none;fontSize=22;" parent="1" vertex="1">
          <mxGeometry x="66" y="163.5" width="105" height="33" as="geometry" />
        </mxCell>
        <mxCell id="lTHf9we9AW2yssygMWxT-16" style="edgeStyle=orthogonalEdgeStyle;rounded=0;orthogonalLoop=1;jettySize=auto;html=1;exitX=0.5;exitY=1;exitDx=0;exitDy=0;" parent="1" edge="1">
          <mxGeometry relative="1" as="geometry">
            <mxPoint x="109" y="515.5" as="sourcePoint" />
            <mxPoint x="109" y="515.5" as="targetPoint" />
          </mxGeometry>
        </mxCell>
        <mxCell id="lTHf9we9AW2yssygMWxT-17" style="edgeStyle=orthogonalEdgeStyle;rounded=0;orthogonalLoop=1;jettySize=auto;html=1;exitX=0.5;exitY=1;exitDx=0;exitDy=0;" parent="1" edge="1">
          <mxGeometry relative="1" as="geometry">
            <mxPoint x="109" y="515.5" as="sourcePoint" />
            <mxPoint x="109" y="515.5" as="targetPoint" />
          </mxGeometry>
        </mxCell>
        <mxCell id="lTHf9we9AW2yssygMWxT-18" value="CRM&lt;div&gt;&lt;br&gt;&lt;/div&gt;" style="image;aspect=fixed;html=1;points=[];align=center;fontSize=12;image=img/lib/azure2/general/Folder_Blank.svg;" parent="1" vertex="1">
          <mxGeometry x="81.89" y="295" width="54.21" height="44" as="geometry" />
        </mxCell>
        <mxCell id="lTHf9we9AW2yssygMWxT-20" style="edgeStyle=orthogonalEdgeStyle;rounded=0;orthogonalLoop=1;jettySize=auto;html=1;exitX=0.5;exitY=1;exitDx=0;exitDy=0;" parent="1" edge="1">
          <mxGeometry relative="1" as="geometry">
            <mxPoint x="120" y="526.5" as="sourcePoint" />
            <mxPoint x="120" y="526.5" as="targetPoint" />
          </mxGeometry>
        </mxCell>
        <mxCell id="lTHf9we9AW2yssygMWxT-21" style="edgeStyle=orthogonalEdgeStyle;rounded=0;orthogonalLoop=1;jettySize=auto;html=1;exitX=0.5;exitY=1;exitDx=0;exitDy=0;" parent="1" edge="1">
          <mxGeometry relative="1" as="geometry">
            <mxPoint x="120" y="526.5" as="sourcePoint" />
            <mxPoint x="120" y="526.5" as="targetPoint" />
          </mxGeometry>
        </mxCell>
        <mxCell id="lTHf9we9AW2yssygMWxT-22" value="&lt;div&gt;ERP&lt;/div&gt;" style="image;aspect=fixed;html=1;points=[];align=center;fontSize=12;image=img/lib/azure2/general/Folder_Blank.svg;" parent="1" vertex="1">
          <mxGeometry x="81.89" y="460" width="54.21" height="44" as="geometry" />
        </mxCell>
        <mxCell id="lTHf9we9AW2yssygMWxT-26" style="edgeStyle=orthogonalEdgeStyle;rounded=0;orthogonalLoop=1;jettySize=auto;html=1;exitX=0.5;exitY=1;exitDx=0;exitDy=0;" parent="1" source="lTHf9we9AW2yssygMWxT-14" target="lTHf9we9AW2yssygMWxT-14" edge="1">
          <mxGeometry relative="1" as="geometry" />
        </mxCell>
        <mxCell id="lTHf9we9AW2yssygMWxT-27" value="" style="rounded=1;whiteSpace=wrap;html=1;fillColor=none;strokeColor=#d79b00;" parent="1" vertex="1">
          <mxGeometry x="250" y="230" width="130" height="330" as="geometry" />
        </mxCell>
        <mxCell id="lTHf9we9AW2yssygMWxT-28" value="&lt;b&gt;&lt;font style=&quot;font-size: 13px;&quot;&gt;Bronze Layer&lt;/font&gt;&lt;/b&gt;" style="rounded=1;whiteSpace=wrap;html=1;fillColor=#ffe6cc;strokeColor=#d79b00;" parent="1" vertex="1">
          <mxGeometry x="255" y="170" width="120" height="44" as="geometry" />
        </mxCell>
        <mxCell id="lTHf9we9AW2yssygMWxT-29" value="crm_sales_details" style="rounded=1;whiteSpace=wrap;html=1;fillColor=#ffe6cc;strokeColor=#d79b00;" parent="1" vertex="1">
          <mxGeometry x="255" y="266" width="120" height="34" as="geometry" />
        </mxCell>
        <mxCell id="Vaef4Wz6_7zJbnOWO6hw-1" style="edgeStyle=orthogonalEdgeStyle;rounded=0;orthogonalLoop=1;jettySize=auto;html=1;entryX=0;entryY=0.5;entryDx=0;entryDy=0;" parent="1" source="lTHf9we9AW2yssygMWxT-30" target="iBZ8hyl-rpUNRlbpcRFD-4" edge="1">
          <mxGeometry relative="1" as="geometry" />
        </mxCell>
        <mxCell id="lTHf9we9AW2yssygMWxT-30" value="crm_cust_info" style="rounded=1;whiteSpace=wrap;html=1;fillColor=#ffe6cc;strokeColor=#d79b00;" parent="1" vertex="1">
          <mxGeometry x="255" y="305" width="120" height="34" as="geometry" />
        </mxCell>
        <mxCell id="lTHf9we9AW2yssygMWxT-31" value="crm_prd_info" style="rounded=1;whiteSpace=wrap;html=1;fillColor=#ffe6cc;strokeColor=#d79b00;" parent="1" vertex="1">
          <mxGeometry x="255" y="344" width="120" height="34" as="geometry" />
        </mxCell>
        <mxCell id="Vaef4Wz6_7zJbnOWO6hw-3" style="edgeStyle=orthogonalEdgeStyle;rounded=0;orthogonalLoop=1;jettySize=auto;html=1;" parent="1" source="lTHf9we9AW2yssygMWxT-32" target="iBZ8hyl-rpUNRlbpcRFD-6" edge="1">
          <mxGeometry relative="1" as="geometry" />
        </mxCell>
        <mxCell id="lTHf9we9AW2yssygMWxT-32" value="erp_cust_az12" style="rounded=1;whiteSpace=wrap;html=1;fillColor=#ffe6cc;strokeColor=#d79b00;" parent="1" vertex="1">
          <mxGeometry x="255" y="430" width="120" height="34" as="geometry" />
        </mxCell>
        <mxCell id="Vaef4Wz6_7zJbnOWO6hw-4" style="edgeStyle=orthogonalEdgeStyle;rounded=0;orthogonalLoop=1;jettySize=auto;html=1;entryX=0;entryY=0.5;entryDx=0;entryDy=0;" parent="1" source="lTHf9we9AW2yssygMWxT-33" target="iBZ8hyl-rpUNRlbpcRFD-7" edge="1">
          <mxGeometry relative="1" as="geometry" />
        </mxCell>
        <mxCell id="lTHf9we9AW2yssygMWxT-33" value="erp_loc_a101" style="rounded=1;whiteSpace=wrap;html=1;fillColor=#ffe6cc;strokeColor=#d79b00;" parent="1" vertex="1">
          <mxGeometry x="255" y="470" width="120" height="34" as="geometry" />
        </mxCell>
        <mxCell id="Vaef4Wz6_7zJbnOWO6hw-5" style="edgeStyle=orthogonalEdgeStyle;rounded=0;orthogonalLoop=1;jettySize=auto;html=1;entryX=0;entryY=0.5;entryDx=0;entryDy=0;" parent="1" source="lTHf9we9AW2yssygMWxT-34" target="iBZ8hyl-rpUNRlbpcRFD-8" edge="1">
          <mxGeometry relative="1" as="geometry" />
        </mxCell>
        <mxCell id="lTHf9we9AW2yssygMWxT-34" value="erp_px_cat_g1v2" style="rounded=1;whiteSpace=wrap;html=1;fillColor=#ffe6cc;strokeColor=#d79b00;" parent="1" vertex="1">
          <mxGeometry x="255" y="510" width="120" height="34" as="geometry" />
        </mxCell>
        <mxCell id="lTHf9we9AW2yssygMWxT-35" value="" style="endArrow=classic;html=1;rounded=0;" parent="1" edge="1">
          <mxGeometry width="50" height="50" relative="1" as="geometry">
            <mxPoint x="140" y="322" as="sourcePoint" />
            <mxPoint x="250" y="322" as="targetPoint" />
          </mxGeometry>
        </mxCell>
        <mxCell id="lTHf9we9AW2yssygMWxT-38" value="" style="endArrow=none;html=1;rounded=0;" parent="1" edge="1">
          <mxGeometry width="50" height="50" relative="1" as="geometry">
            <mxPoint x="220" y="360" as="sourcePoint" />
            <mxPoint x="220" y="280" as="targetPoint" />
          </mxGeometry>
        </mxCell>
        <mxCell id="lTHf9we9AW2yssygMWxT-40" value="" style="endArrow=classic;html=1;rounded=0;" parent="1" edge="1">
          <mxGeometry width="50" height="50" relative="1" as="geometry">
            <mxPoint x="220" y="280" as="sourcePoint" />
            <mxPoint x="250" y="280" as="targetPoint" />
          </mxGeometry>
        </mxCell>
        <mxCell id="lTHf9we9AW2yssygMWxT-41" value="" style="endArrow=classic;html=1;rounded=0;" parent="1" edge="1">
          <mxGeometry width="50" height="50" relative="1" as="geometry">
            <mxPoint x="220" y="360" as="sourcePoint" />
            <mxPoint x="250" y="360" as="targetPoint" />
            <Array as="points">
              <mxPoint x="230" y="360" />
            </Array>
          </mxGeometry>
        </mxCell>
        <mxCell id="lTHf9we9AW2yssygMWxT-42" value="" style="endArrow=classic;html=1;rounded=0;" parent="1" edge="1">
          <mxGeometry width="50" height="50" relative="1" as="geometry">
            <mxPoint x="140" y="486.69" as="sourcePoint" />
            <mxPoint x="250" y="486.69" as="targetPoint" />
          </mxGeometry>
        </mxCell>
        <mxCell id="lTHf9we9AW2yssygMWxT-43" value="" style="endArrow=none;html=1;rounded=0;" parent="1" edge="1">
          <mxGeometry width="50" height="50" relative="1" as="geometry">
            <mxPoint x="220" y="527" as="sourcePoint" />
            <mxPoint x="220" y="447" as="targetPoint" />
          </mxGeometry>
        </mxCell>
        <mxCell id="lTHf9we9AW2yssygMWxT-46" value="" style="endArrow=classic;html=1;rounded=0;" parent="1" edge="1">
          <mxGeometry width="50" height="50" relative="1" as="geometry">
            <mxPoint x="220" y="526.69" as="sourcePoint" />
            <mxPoint x="250" y="526.69" as="targetPoint" />
            <Array as="points">
              <mxPoint x="230" y="526.69" />
            </Array>
          </mxGeometry>
        </mxCell>
        <mxCell id="lTHf9we9AW2yssygMWxT-47" value="" style="endArrow=classic;html=1;rounded=0;" parent="1" edge="1">
          <mxGeometry width="50" height="50" relative="1" as="geometry">
            <mxPoint x="220" y="446.75" as="sourcePoint" />
            <mxPoint x="250" y="446.75" as="targetPoint" />
            <Array as="points">
              <mxPoint x="230" y="446.75" />
            </Array>
          </mxGeometry>
        </mxCell>
        <mxCell id="iBZ8hyl-rpUNRlbpcRFD-1" value="" style="rounded=1;whiteSpace=wrap;html=1;fillColor=none;strokeColor=#666666;fontColor=#333333;" parent="1" vertex="1">
          <mxGeometry x="440" y="230" width="130" height="330" as="geometry" />
        </mxCell>
        <mxCell id="iBZ8hyl-rpUNRlbpcRFD-2" value="&lt;b&gt;&lt;font style=&quot;font-size: 13px;&quot;&gt;Silver Layer&lt;/font&gt;&lt;/b&gt;" style="rounded=1;whiteSpace=wrap;html=1;fillColor=#f5f5f5;strokeColor=#666666;fontColor=#333333;" parent="1" vertex="1">
          <mxGeometry x="445" y="170" width="120" height="44" as="geometry" />
        </mxCell>
        <mxCell id="iBZ8hyl-rpUNRlbpcRFD-4" value="&lt;span style=&quot;color: rgb(0, 0, 0);&quot;&gt;crm_cust_info&lt;/span&gt;" style="rounded=1;whiteSpace=wrap;html=1;fillColor=#f5f5f5;strokeColor=#666666;fontColor=#333333;" parent="1" vertex="1">
          <mxGeometry x="445" y="305" width="120" height="34" as="geometry" />
        </mxCell>
        <mxCell id="iBZ8hyl-rpUNRlbpcRFD-5" value="&lt;span style=&quot;color: rgb(0, 0, 0);&quot;&gt;crm_prd_info&lt;/span&gt;" style="rounded=1;whiteSpace=wrap;html=1;fillColor=#f5f5f5;strokeColor=#666666;fontColor=#333333;" parent="1" vertex="1">
          <mxGeometry x="445" y="344" width="120" height="34" as="geometry" />
        </mxCell>
        <mxCell id="iBZ8hyl-rpUNRlbpcRFD-6" value="&lt;span style=&quot;color: rgb(0, 0, 0);&quot;&gt;erp_cust_az12&lt;/span&gt;" style="rounded=1;whiteSpace=wrap;html=1;fillColor=#f5f5f5;strokeColor=#666666;fontColor=#333333;" parent="1" vertex="1">
          <mxGeometry x="445" y="430" width="120" height="34" as="geometry" />
        </mxCell>
        <mxCell id="iBZ8hyl-rpUNRlbpcRFD-7" value="&lt;meta charset=&quot;utf-8&quot;&gt;&lt;span style=&quot;color: rgb(0, 0, 0); font-family: Helvetica; font-size: 12px; font-style: normal; font-variant-ligatures: normal; font-variant-caps: normal; font-weight: 400; letter-spacing: normal; orphans: 2; text-align: center; text-indent: 0px; text-transform: none; widows: 2; word-spacing: 0px; -webkit-text-stroke-width: 0px; white-space: normal; background-color: rgb(251, 251, 251); text-decoration-thickness: initial; text-decoration-style: initial; text-decoration-color: initial; display: inline !important; float: none;&quot;&gt;erp_loc_a101&lt;/span&gt;" style="rounded=1;whiteSpace=wrap;html=1;fillColor=#f5f5f5;strokeColor=#666666;fontColor=#333333;" parent="1" vertex="1">
          <mxGeometry x="445" y="470" width="120" height="34" as="geometry" />
        </mxCell>
        <mxCell id="iBZ8hyl-rpUNRlbpcRFD-8" value="&lt;span style=&quot;color: rgb(0, 0, 0);&quot;&gt;erp_px_cat_g1v2&lt;/span&gt;" style="rounded=1;whiteSpace=wrap;html=1;fillColor=#f5f5f5;strokeColor=#666666;fontColor=#333333;" parent="1" vertex="1">
          <mxGeometry x="445" y="510" width="120" height="34" as="geometry" />
        </mxCell>
        <mxCell id="iBZ8hyl-rpUNRlbpcRFD-9" style="edgeStyle=orthogonalEdgeStyle;rounded=0;orthogonalLoop=1;jettySize=auto;html=1;exitX=1;exitY=0.5;exitDx=0;exitDy=0;" parent="1" source="lTHf9we9AW2yssygMWxT-29" edge="1">
          <mxGeometry relative="1" as="geometry">
            <mxPoint x="445" y="283" as="targetPoint" />
          </mxGeometry>
        </mxCell>
        <mxCell id="Vaef4Wz6_7zJbnOWO6hw-2" style="edgeStyle=orthogonalEdgeStyle;rounded=0;orthogonalLoop=1;jettySize=auto;html=1;entryX=0;entryY=0.5;entryDx=0;entryDy=0;" parent="1" source="lTHf9we9AW2yssygMWxT-31" target="iBZ8hyl-rpUNRlbpcRFD-5" edge="1">
          <mxGeometry relative="1" as="geometry" />
        </mxCell>
        <mxCell id="T1hVWj4UamNhT-upmQpR-2" value="" style="rounded=1;whiteSpace=wrap;html=1;fillColor=none;strokeColor=#d6b656;" parent="1" vertex="1">
          <mxGeometry x="650" y="230" width="130" height="330" as="geometry" />
        </mxCell>
        <mxCell id="T1hVWj4UamNhT-upmQpR-3" value="&lt;b&gt;&lt;font style=&quot;font-size: 13px;&quot;&gt;Gold Layer&lt;/font&gt;&lt;/b&gt;" style="rounded=1;whiteSpace=wrap;html=1;fillColor=#fff2cc;strokeColor=#d6b656;" parent="1" vertex="1">
          <mxGeometry x="655" y="170" width="120" height="44" as="geometry" />
        </mxCell>
        <mxCell id="T1hVWj4UamNhT-upmQpR-4" value="fact_sales" style="rounded=1;whiteSpace=wrap;html=1;fillColor=#fff2cc;strokeColor=#d6b656;" parent="1" vertex="1">
          <mxGeometry x="655" y="266" width="120" height="34" as="geometry" />
        </mxCell>
        <mxCell id="T1hVWj4UamNhT-upmQpR-5" value="dim_customers" style="rounded=1;whiteSpace=wrap;html=1;fillColor=#fff2cc;strokeColor=#d6b656;" parent="1" vertex="1">
          <mxGeometry x="655" y="339" width="120" height="34" as="geometry" />
        </mxCell>
        <mxCell id="T1hVWj4UamNhT-upmQpR-6" value="dim_products" style="rounded=1;whiteSpace=wrap;html=1;fillColor=#fff2cc;strokeColor=#d6b656;" parent="1" vertex="1">
          <mxGeometry x="655" y="476" width="120" height="34" as="geometry" />
        </mxCell>
        <mxCell id="T1hVWj4UamNhT-upmQpR-19" value="" style="endArrow=classic;html=1;rounded=0;" parent="1" source="T1hVWj4UamNhT-upmQpR-18" edge="1">
          <mxGeometry width="50" height="50" relative="1" as="geometry">
            <mxPoint x="480" y="330" as="sourcePoint" />
            <mxPoint x="530" y="280" as="targetPoint" />
          </mxGeometry>
        </mxCell>
        <mxCell id="T1hVWj4UamNhT-upmQpR-20" value="" style="endArrow=classic;html=1;rounded=0;exitX=1;exitY=0.5;exitDx=0;exitDy=0;entryX=0;entryY=0.5;entryDx=0;entryDy=0;" parent="1" source="T1hVWj4UamNhT-upmQpR-18" target="T1hVWj4UamNhT-upmQpR-4" edge="1">
          <mxGeometry width="50" height="50" relative="1" as="geometry">
            <mxPoint x="600" y="300.5" as="sourcePoint" />
            <mxPoint x="616.8269230769231" y="265.5000000000001" as="targetPoint" />
          </mxGeometry>
        </mxCell>
        <mxCell id="T1hVWj4UamNhT-upmQpR-18" value="&lt;span style=&quot;color: rgb(0, 0, 0);&quot;&gt;crm_sales_details&lt;/span&gt;" style="rounded=1;whiteSpace=wrap;html=1;fillColor=#f5f5f5;strokeColor=#666666;fontColor=#333333;" parent="1" vertex="1">
          <mxGeometry x="445" y="266" width="120" height="34" as="geometry" />
        </mxCell>
        <mxCell id="T1hVWj4UamNhT-upmQpR-21" value="" style="endArrow=classic;html=1;rounded=0;entryX=0.019;entryY=0.403;entryDx=0;entryDy=0;entryPerimeter=0;jumpStyle=gap;" parent="1" target="T1hVWj4UamNhT-upmQpR-5" edge="1">
          <mxGeometry width="50" height="50" relative="1" as="geometry">
            <mxPoint x="565" y="322" as="sourcePoint" />
            <mxPoint x="725" y="312" as="targetPoint" />
          </mxGeometry>
        </mxCell>
        <mxCell id="T1hVWj4UamNhT-upmQpR-22" value="" style="endArrow=classic;html=1;rounded=0;entryX=-0.004;entryY=0.388;entryDx=0;entryDy=0;entryPerimeter=0;exitX=1;exitY=0.5;exitDx=0;exitDy=0;jumpStyle=gap;" parent="1" source="iBZ8hyl-rpUNRlbpcRFD-5" target="T1hVWj4UamNhT-upmQpR-6" edge="1">
          <mxGeometry width="50" height="50" relative="1" as="geometry">
            <mxPoint x="480" y="400" as="sourcePoint" />
            <mxPoint x="530" y="350" as="targetPoint" />
          </mxGeometry>
        </mxCell>
        <mxCell id="T1hVWj4UamNhT-upmQpR-23" value="" style="endArrow=classic;html=1;rounded=0;exitX=1;exitY=0.25;exitDx=0;exitDy=0;entryX=0.005;entryY=0.618;entryDx=0;entryDy=0;entryPerimeter=0;jumpStyle=gap;" parent="1" source="iBZ8hyl-rpUNRlbpcRFD-6" target="T1hVWj4UamNhT-upmQpR-5" edge="1">
          <mxGeometry width="50" height="50" relative="1" as="geometry">
            <mxPoint x="480" y="400" as="sourcePoint" />
            <mxPoint x="530" y="350" as="targetPoint" />
          </mxGeometry>
        </mxCell>
        <mxCell id="T1hVWj4UamNhT-upmQpR-24" value="" style="endArrow=classic;html=1;rounded=0;exitX=1;exitY=0.5;exitDx=0;exitDy=0;entryX=0;entryY=1;entryDx=0;entryDy=0;jumpStyle=gap;" parent="1" source="iBZ8hyl-rpUNRlbpcRFD-7" target="T1hVWj4UamNhT-upmQpR-5" edge="1">
          <mxGeometry width="50" height="50" relative="1" as="geometry">
            <mxPoint x="480" y="430" as="sourcePoint" />
            <mxPoint x="530" y="380" as="targetPoint" />
          </mxGeometry>
        </mxCell>
        <mxCell id="T1hVWj4UamNhT-upmQpR-25" value="" style="endArrow=classic;html=1;rounded=0;exitX=1;exitY=0.5;exitDx=0;exitDy=0;entryX=0;entryY=0.5;entryDx=0;entryDy=0;jumpStyle=gap;" parent="1" source="iBZ8hyl-rpUNRlbpcRFD-8" target="T1hVWj4UamNhT-upmQpR-6" edge="1">
          <mxGeometry width="50" height="50" relative="1" as="geometry">
            <mxPoint x="480" y="530" as="sourcePoint" />
            <mxPoint x="530" y="480" as="targetPoint" />
          </mxGeometry>
        </mxCell>
      </root>
    </mxGraphModel>
  </diagram>
</mxfile>
